<mxfile host="65bd71144e">
    <diagram id="cEoVXELdvFO_kZcVJan2" name="Page-1">
        <mxGraphModel dx="1086" dy="796" grid="1" gridSize="10" guides="1" tooltips="1" connect="1" arrows="1" fold="1" page="1" pageScale="1" pageWidth="850" pageHeight="1100" math="0" shadow="0">
            <root>
                <mxCell id="0"/>
                <mxCell id="1" parent="0"/>
                <mxCell id="75" value="" style="endArrow=none;dashed=1;html=1;startSize=6;endSize=6;exitX=0.5;exitY=1;exitDx=0;exitDy=0;" edge="1" parent="1" source="63">
                    <mxGeometry width="50" height="50" relative="1" as="geometry">
                        <mxPoint x="510" y="730" as="sourcePoint"/>
                        <mxPoint x="460" y="800" as="targetPoint"/>
                    </mxGeometry>
                </mxCell>
                <mxCell id="55" value="" style="endArrow=none;dashed=1;html=1;startSize=6;endSize=6;entryX=0.5;entryY=1;entryDx=0;entryDy=0;exitX=0.469;exitY=-0.047;exitDx=0;exitDy=0;exitPerimeter=0;" edge="1" parent="1" source="63" target="34">
                    <mxGeometry width="50" height="50" relative="1" as="geometry">
                        <mxPoint x="460" y="630" as="sourcePoint"/>
                        <mxPoint x="450" y="320" as="targetPoint"/>
                    </mxGeometry>
                </mxCell>
                <mxCell id="40" value="" style="endArrow=none;dashed=1;html=1;startSize=6;endSize=6;" edge="1" parent="1">
                    <mxGeometry width="50" height="50" relative="1" as="geometry">
                        <mxPoint x="460" y="155" as="sourcePoint"/>
                        <mxPoint x="459.58" y="115" as="targetPoint"/>
                    </mxGeometry>
                </mxCell>
                <mxCell id="37" value="" style="endArrow=none;dashed=1;html=1;startSize=6;endSize=6;entryX=0.532;entryY=1.048;entryDx=0;entryDy=0;entryPerimeter=0;exitX=0.5;exitY=0;exitDx=0;exitDy=0;" edge="1" parent="1">
                    <mxGeometry width="50" height="50" relative="1" as="geometry">
                        <mxPoint x="140.41000000000003" y="160.34" as="sourcePoint"/>
                        <mxPoint x="139.59315999999995" y="122.49999999999997" as="targetPoint"/>
                        <Array as="points">
                            <mxPoint x="139.93" y="140.34"/>
                        </Array>
                    </mxGeometry>
                </mxCell>
                <mxCell id="33" value="" style="endArrow=none;dashed=1;html=1;startSize=6;endSize=6;entryX=0.532;entryY=1.048;entryDx=0;entryDy=0;entryPerimeter=0;" edge="1" parent="1">
                    <mxGeometry width="50" height="50" relative="1" as="geometry">
                        <mxPoint x="460" y="360" as="sourcePoint"/>
                        <mxPoint x="459.58316" y="300" as="targetPoint"/>
                    </mxGeometry>
                </mxCell>
                <mxCell id="2" value="&lt;span style=&quot;background-color: rgb(230, 230, 230);&quot;&gt;Alice&lt;/span&gt;" style="shape=umlActor;verticalLabelPosition=bottom;verticalAlign=top;html=1;outlineConnect=0;" vertex="1" parent="1">
                    <mxGeometry x="130" y="80" width="20" height="40" as="geometry"/>
                </mxCell>
                <mxCell id="3" value="&lt;span style=&quot;background-color: rgb(230, 230, 230);&quot;&gt;Bob&lt;/span&gt;" style="shape=umlActor;verticalLabelPosition=bottom;verticalAlign=top;html=1;outlineConnect=0;" vertex="1" parent="1">
                    <mxGeometry x="450" y="80" width="20" height="40" as="geometry"/>
                </mxCell>
                <mxCell id="8" value="" style="whiteSpace=wrap;html=1;verticalAlign=top;" vertex="1" parent="1">
                    <mxGeometry x="130" y="160" width="20" height="160" as="geometry"/>
                </mxCell>
                <mxCell id="10" value="" style="whiteSpace=wrap;html=1;verticalAlign=top;" vertex="1" parent="1">
                    <mxGeometry x="450" y="160" width="20" height="150" as="geometry"/>
                </mxCell>
                <mxCell id="14" value="" style="points=[];aspect=fixed;html=1;align=center;shadow=0;dashed=0;image;image=img/lib/allied_telesis/storage/Datacenter_Server_Half_Rack_ToR.svg;" vertex="1" parent="1">
                    <mxGeometry x="279.24" y="75" width="34.63" height="45" as="geometry"/>
                </mxCell>
                <mxCell id="15" value="" style="points=[];aspect=fixed;html=1;align=center;shadow=0;dashed=0;image;image=img/lib/allied_telesis/storage/Datacenter_Server_Half_Rack_ToR.svg;" vertex="1" parent="1">
                    <mxGeometry x="600" y="72.5" width="38.48" height="50" as="geometry"/>
                </mxCell>
                <mxCell id="16" value="" style="whiteSpace=wrap;html=1;verticalAlign=top;" vertex="1" parent="1">
                    <mxGeometry x="288.48" y="160" width="20" height="640" as="geometry"/>
                </mxCell>
                <mxCell id="17" value="" style="endArrow=classic;html=1;startSize=6;endSize=6;exitX=1.08;exitY=0.19;exitDx=0;exitDy=0;exitPerimeter=0;entryX=-0.064;entryY=0.045;entryDx=0;entryDy=0;entryPerimeter=0;" edge="1" parent="1" source="8" target="16">
                    <mxGeometry relative="1" as="geometry">
                        <mxPoint x="430" y="290" as="sourcePoint"/>
                        <mxPoint x="590" y="290" as="targetPoint"/>
                    </mxGeometry>
                </mxCell>
                <mxCell id="18" value="{register_user, Alice}" style="edgeLabel;resizable=0;html=1;align=center;verticalAlign=middle;labelBackgroundColor=#E6E6E6;" connectable="0" vertex="1" parent="17">
                    <mxGeometry relative="1" as="geometry"/>
                </mxCell>
                <mxCell id="20" value="" style="endArrow=classic;html=1;startSize=6;endSize=6;exitX=0.076;exitY=0.078;exitDx=0;exitDy=0;exitPerimeter=0;" edge="1" parent="1" source="16">
                    <mxGeometry width="50" height="50" relative="1" as="geometry">
                        <mxPoint x="490" y="310" as="sourcePoint"/>
                        <mxPoint x="150" y="210" as="targetPoint"/>
                    </mxGeometry>
                </mxCell>
                <mxCell id="21" value="" style="endArrow=classic;html=1;startSize=6;endSize=6;exitX=1;exitY=0.5;exitDx=0;exitDy=0;entryX=-0.148;entryY=0.123;entryDx=0;entryDy=0;entryPerimeter=0;" edge="1" parent="1" source="8" target="16">
                    <mxGeometry relative="1" as="geometry">
                        <mxPoint x="161.5999999999999" y="200.39999999999998" as="sourcePoint"/>
                        <mxPoint x="299.28" y="199.60000000000002" as="targetPoint"/>
                    </mxGeometry>
                </mxCell>
                <mxCell id="22" value="{log_in, Alice}" style="edgeLabel;resizable=0;html=1;align=center;verticalAlign=middle;labelBackgroundColor=#E6E6E6;" connectable="0" vertex="1" parent="21">
                    <mxGeometry relative="1" as="geometry"/>
                </mxCell>
                <mxCell id="23" value="" style="endArrow=classic;html=1;startSize=6;endSize=6;entryX=1.026;entryY=0.628;entryDx=0;entryDy=0;entryPerimeter=0;" edge="1" parent="1" target="8">
                    <mxGeometry width="50" height="50" relative="1" as="geometry">
                        <mxPoint x="280" y="260" as="sourcePoint"/>
                        <mxPoint x="160.79999999999995" y="219.60000000000002" as="targetPoint"/>
                    </mxGeometry>
                </mxCell>
                <mxCell id="26" value="" style="endArrow=classic;html=1;startSize=6;endSize=6;exitX=-0.05;exitY=0.926;exitDx=0;exitDy=0;exitPerimeter=0;" edge="1" parent="1" source="10">
                    <mxGeometry relative="1" as="geometry">
                        <mxPoint x="360" y="290" as="sourcePoint"/>
                        <mxPoint x="310" y="300" as="targetPoint"/>
                    </mxGeometry>
                </mxCell>
                <mxCell id="27" value="{register_user, Bob}" style="edgeLabel;resizable=0;html=1;align=center;verticalAlign=middle;labelBackgroundColor=#E6E6E6;" connectable="0" vertex="1" parent="26">
                    <mxGeometry relative="1" as="geometry"/>
                </mxCell>
                <mxCell id="29" value="" style="whiteSpace=wrap;html=1;verticalAlign=top;" vertex="1" parent="1">
                    <mxGeometry x="609.24" y="160" width="20" height="640" as="geometry"/>
                </mxCell>
                <mxCell id="30" value="" style="endArrow=classic;html=1;startSize=6;endSize=6;entryX=0;entryY=0.25;entryDx=0;entryDy=0;" edge="1" parent="1" target="29">
                    <mxGeometry relative="1" as="geometry">
                        <mxPoint x="310" y="320" as="sourcePoint"/>
                        <mxPoint x="320" y="310" as="targetPoint"/>
                    </mxGeometry>
                </mxCell>
                <mxCell id="31" value="{register_user, Bob}" style="edgeLabel;resizable=0;html=1;align=center;verticalAlign=middle;labelBackgroundColor=#E6E6E6;" connectable="0" vertex="1" parent="30">
                    <mxGeometry relative="1" as="geometry"/>
                </mxCell>
                <mxCell id="32" value="" style="endArrow=none;dashed=1;html=1;startSize=6;endSize=6;entryX=0.532;entryY=1.048;entryDx=0;entryDy=0;entryPerimeter=0;exitX=0.5;exitY=0;exitDx=0;exitDy=0;" edge="1" parent="1" source="16" target="14">
                    <mxGeometry width="50" height="50" relative="1" as="geometry">
                        <mxPoint x="410" y="320" as="sourcePoint"/>
                        <mxPoint x="460" y="270" as="targetPoint"/>
                        <Array as="points">
                            <mxPoint x="298" y="140"/>
                        </Array>
                    </mxGeometry>
                </mxCell>
                <mxCell id="34" value="" style="whiteSpace=wrap;html=1;verticalAlign=top;" vertex="1" parent="1">
                    <mxGeometry x="450" y="360" width="20" height="120" as="geometry"/>
                </mxCell>
                <mxCell id="35" value="" style="endArrow=classic;html=1;startSize=6;endSize=6;exitX=0.036;exitY=0.177;exitDx=0;exitDy=0;exitPerimeter=0;entryX=1.04;entryY=0.31;entryDx=0;entryDy=0;entryPerimeter=0;" edge="1" parent="1">
                    <mxGeometry width="50" height="50" relative="1" as="geometry">
                        <mxPoint x="608.4000000000001" y="369.99999999999994" as="sourcePoint"/>
                        <mxPoint x="470.00000000000006" y="370.04" as="targetPoint"/>
                    </mxGeometry>
                </mxCell>
                <mxCell id="39" value="&lt;span style=&quot;background-color: rgb(230, 230, 230);&quot;&gt;Server A&lt;/span&gt;" style="text;html=1;strokeColor=none;fillColor=none;align=center;verticalAlign=middle;whiteSpace=wrap;rounded=0;" vertex="1" parent="1">
                    <mxGeometry x="268.48" y="120" width="60" height="30" as="geometry"/>
                </mxCell>
                <mxCell id="41" value="" style="endArrow=none;dashed=1;html=1;startSize=6;endSize=6;" edge="1" parent="1">
                    <mxGeometry width="50" height="50" relative="1" as="geometry">
                        <mxPoint x="618.8199999999999" y="160" as="sourcePoint"/>
                        <mxPoint x="618.8199999999999" y="120" as="targetPoint"/>
                    </mxGeometry>
                </mxCell>
                <mxCell id="42" value="&lt;span style=&quot;background-color: rgb(230, 230, 230);&quot;&gt;Server B&lt;/span&gt;" style="text;html=1;strokeColor=none;fillColor=none;align=center;verticalAlign=middle;whiteSpace=wrap;rounded=0;" vertex="1" parent="1">
                    <mxGeometry x="589.24" y="120" width="60" height="30" as="geometry"/>
                </mxCell>
                <mxCell id="43" value="" style="endArrow=classic;html=1;startSize=6;endSize=6;exitX=1.15;exitY=0.335;exitDx=0;exitDy=0;exitPerimeter=0;" edge="1" parent="1" source="34">
                    <mxGeometry relative="1" as="geometry">
                        <mxPoint x="460" y="320" as="sourcePoint"/>
                        <mxPoint x="606" y="400" as="targetPoint"/>
                    </mxGeometry>
                </mxCell>
                <mxCell id="44" value="{log_in, Bob}" style="edgeLabel;resizable=0;html=1;align=center;verticalAlign=middle;labelBackgroundColor=#E6E6E6;" connectable="0" vertex="1" parent="43">
                    <mxGeometry relative="1" as="geometry"/>
                </mxCell>
                <mxCell id="45" value="" style="endArrow=classic;html=1;startSize=6;endSize=6;entryX=1.04;entryY=0.31;entryDx=0;entryDy=0;entryPerimeter=0;" edge="1" parent="1">
                    <mxGeometry width="50" height="50" relative="1" as="geometry">
                        <mxPoint x="609" y="420" as="sourcePoint"/>
                        <mxPoint x="470.84" y="420.03999999999996" as="targetPoint"/>
                    </mxGeometry>
                </mxCell>
                <mxCell id="50" value="" style="endArrow=classic;html=1;startSize=6;endSize=6;entryX=0.038;entryY=0.438;entryDx=0;entryDy=0;entryPerimeter=0;" edge="1" parent="1" target="29">
                    <mxGeometry relative="1" as="geometry">
                        <mxPoint x="470" y="440" as="sourcePoint"/>
                        <mxPoint x="570" y="440" as="targetPoint"/>
                    </mxGeometry>
                </mxCell>
                <mxCell id="51" value="{follow, Bob, Alice}&amp;nbsp;" style="edgeLabel;resizable=0;html=1;align=center;verticalAlign=middle;labelBackgroundColor=#E6E6E6;" connectable="0" vertex="1" parent="50">
                    <mxGeometry relative="1" as="geometry"/>
                </mxCell>
                <mxCell id="52" value="" style="endArrow=classic;html=1;startSize=6;endSize=6;entryX=1.15;entryY=0.84;entryDx=0;entryDy=0;entryPerimeter=0;" edge="1" parent="1" target="34">
                    <mxGeometry width="50" height="50" relative="1" as="geometry">
                        <mxPoint x="600" y="461" as="sourcePoint"/>
                        <mxPoint x="480.8399999999999" y="430.03999999999996" as="targetPoint"/>
                    </mxGeometry>
                </mxCell>
                <mxCell id="53" value="" style="endArrow=classic;html=1;startSize=6;endSize=6;exitX=-0.045;exitY=0.562;exitDx=0;exitDy=0;exitPerimeter=0;" edge="1" parent="1" source="29">
                    <mxGeometry relative="1" as="geometry">
                        <mxPoint x="400" y="520" as="sourcePoint"/>
                        <mxPoint x="310" y="520" as="targetPoint"/>
                    </mxGeometry>
                </mxCell>
                <mxCell id="54" value="{follow, Alice, Bob}" style="edgeLabel;resizable=0;html=1;align=center;verticalAlign=middle;labelBackgroundColor=#E6E6E6;" connectable="0" vertex="1" parent="53">
                    <mxGeometry relative="1" as="geometry"/>
                </mxCell>
                <mxCell id="56" value="" style="endArrow=none;dashed=1;html=1;startSize=6;endSize=6;entryX=0.5;entryY=1;entryDx=0;entryDy=0;" edge="1" parent="1" target="8">
                    <mxGeometry width="50" height="50" relative="1" as="geometry">
                        <mxPoint x="140" y="560" as="sourcePoint"/>
                        <mxPoint x="480" y="360" as="targetPoint"/>
                    </mxGeometry>
                </mxCell>
                <mxCell id="57" value="" style="whiteSpace=wrap;html=1;verticalAlign=top;" vertex="1" parent="1">
                    <mxGeometry x="130" y="560" width="20" height="160" as="geometry"/>
                </mxCell>
                <mxCell id="58" value="" style="endArrow=classic;html=1;startSize=6;endSize=6;exitX=1.102;exitY=0.063;exitDx=0;exitDy=0;exitPerimeter=0;entryX=-0.103;entryY=0.641;entryDx=0;entryDy=0;entryPerimeter=0;" edge="1" parent="1" source="57" target="16">
                    <mxGeometry relative="1" as="geometry">
                        <mxPoint x="200" y="540" as="sourcePoint"/>
                        <mxPoint x="300" y="540" as="targetPoint"/>
                    </mxGeometry>
                </mxCell>
                <mxCell id="59" value="{send_message, &lt;br&gt;Alice,&lt;br&gt;&amp;nbsp;'Hello', &lt;br&gt;15.38}" style="edgeLabel;resizable=0;html=1;align=center;verticalAlign=middle;labelBackgroundColor=#E6E6E6;textDirection=ltr;" connectable="0" vertex="1" parent="58">
                    <mxGeometry relative="1" as="geometry"/>
                </mxCell>
                <mxCell id="60" value="" style="endArrow=classic;html=1;startSize=6;endSize=6;entryX=1;entryY=0.25;entryDx=0;entryDy=0;" edge="1" parent="1">
                    <mxGeometry width="50" height="50" relative="1" as="geometry">
                        <mxPoint x="280" y="612" as="sourcePoint"/>
                        <mxPoint x="150" y="612" as="targetPoint"/>
                    </mxGeometry>
                </mxCell>
                <mxCell id="61" value="" style="endArrow=classic;html=1;startSize=6;endSize=6;entryX=-0.083;entryY=0.702;entryDx=0;entryDy=0;entryPerimeter=0;" edge="1" parent="1" target="29">
                    <mxGeometry relative="1" as="geometry">
                        <mxPoint x="310" y="610" as="sourcePoint"/>
                        <mxPoint x="470" y="610" as="targetPoint"/>
                    </mxGeometry>
                </mxCell>
                <mxCell id="62" value="{update_subscriber_messages, &lt;br&gt;[{message, Alice, 'Hello', 15.38 }]&amp;nbsp;" style="edgeLabel;resizable=0;html=1;align=center;verticalAlign=middle;labelBackgroundColor=#E6E6E6;" connectable="0" vertex="1" parent="61">
                    <mxGeometry relative="1" as="geometry"/>
                </mxCell>
                <mxCell id="63" value="" style="rounded=0;whiteSpace=wrap;html=1;labelBackgroundColor=#E6E6E6;" vertex="1" parent="1">
                    <mxGeometry x="450" y="640" width="20" height="100" as="geometry"/>
                </mxCell>
                <mxCell id="64" value="" style="endArrow=classic;html=1;startSize=6;endSize=6;exitX=1;exitY=0.083;exitDx=0;exitDy=0;exitPerimeter=0;entryX=0.038;entryY=0.766;entryDx=0;entryDy=0;entryPerimeter=0;" edge="1" parent="1" source="63" target="29">
                    <mxGeometry relative="1" as="geometry">
                        <mxPoint x="430" y="590" as="sourcePoint"/>
                        <mxPoint x="530" y="590" as="targetPoint"/>
                    </mxGeometry>
                </mxCell>
                <mxCell id="65" value="{get_timeline, Bob}" style="edgeLabel;resizable=0;html=1;align=center;verticalAlign=middle;labelBackgroundColor=#E6E6E6;" connectable="0" vertex="1" parent="64">
                    <mxGeometry relative="1" as="geometry"/>
                </mxCell>
                <mxCell id="66" value="" style="endArrow=classic;html=1;startSize=6;endSize=6;exitX=0.038;exitY=0.828;exitDx=0;exitDy=0;exitPerimeter=0;" edge="1" parent="1" source="29">
                    <mxGeometry relative="1" as="geometry">
                        <mxPoint x="430" y="590" as="sourcePoint"/>
                        <mxPoint x="473" y="690" as="targetPoint"/>
                    </mxGeometry>
                </mxCell>
                <mxCell id="67" value="{timeline,[{Alice,&amp;nbsp;&lt;br&gt;'Hello',&lt;br&gt;15.38}]" style="edgeLabel;resizable=0;html=1;align=center;verticalAlign=middle;labelBackgroundColor=#E6E6E6;" connectable="0" vertex="1" parent="66">
                    <mxGeometry relative="1" as="geometry"/>
                </mxCell>
                <mxCell id="71" value="" style="endArrow=classic;html=1;startSize=6;endSize=6;exitX=1;exitY=0.083;exitDx=0;exitDy=0;exitPerimeter=0;entryX=0.038;entryY=0.766;entryDx=0;entryDy=0;entryPerimeter=0;" edge="1" parent="1">
                    <mxGeometry relative="1" as="geometry">
                        <mxPoint x="469.24" y="727.9999999999999" as="sourcePoint"/>
                        <mxPoint x="609.24" y="728.2799999999999" as="targetPoint"/>
                    </mxGeometry>
                </mxCell>
                <mxCell id="72" value="{get_profile, Alice}" style="edgeLabel;resizable=0;html=1;align=center;verticalAlign=middle;labelBackgroundColor=#E6E6E6;" connectable="0" vertex="1" parent="71">
                    <mxGeometry relative="1" as="geometry"/>
                </mxCell>
                <mxCell id="73" value="" style="endArrow=classic;html=1;startSize=6;endSize=6;exitX=-0.082;exitY=0.951;exitDx=0;exitDy=0;exitPerimeter=0;" edge="1" parent="1">
                    <mxGeometry relative="1" as="geometry">
                        <mxPoint x="607.6000000000001" y="750.6400000000001" as="sourcePoint"/>
                        <mxPoint x="310" y="752" as="targetPoint"/>
                    </mxGeometry>
                </mxCell>
                <mxCell id="74" value="{get_profile, Alice}" style="edgeLabel;resizable=0;html=1;align=center;verticalAlign=middle;labelBackgroundColor=#E6E6E6;" connectable="0" vertex="1" parent="73">
                    <mxGeometry relative="1" as="geometry"/>
                </mxCell>
                <mxCell id="76" value="" style="rounded=0;whiteSpace=wrap;html=1;labelBackgroundColor=#E6E6E6;" vertex="1" parent="1">
                    <mxGeometry x="450" y="771" width="20" height="29" as="geometry"/>
                </mxCell>
                <mxCell id="77" value="" style="endArrow=classic;html=1;startSize=6;endSize=6;" edge="1" parent="1">
                    <mxGeometry relative="1" as="geometry">
                        <mxPoint x="310" y="780" as="sourcePoint"/>
                        <mxPoint x="450" y="780" as="targetPoint"/>
                    </mxGeometry>
                </mxCell>
                <mxCell id="78" value="{get_profile,[{Alice,&amp;nbsp;&lt;br&gt;'Hello',&lt;br&gt;15.38}]" style="edgeLabel;resizable=0;html=1;align=center;verticalAlign=middle;labelBackgroundColor=#E6E6E6;" connectable="0" vertex="1" parent="77">
                    <mxGeometry relative="1" as="geometry"/>
                </mxCell>
                <mxCell id="80" value="" style="endArrow=none;dashed=1;html=1;startSize=6;endSize=6;exitX=0.5;exitY=1;exitDx=0;exitDy=0;" edge="1" parent="1">
                    <mxGeometry width="50" height="50" relative="1" as="geometry">
                        <mxPoint x="139.70999999999998" y="720" as="sourcePoint"/>
                        <mxPoint x="140" y="800" as="targetPoint"/>
                    </mxGeometry>
                </mxCell>
            </root>
        </mxGraphModel>
    </diagram>
</mxfile>